<?xml version="1.0" encoding="utf-8"?>
<!-- Generator: Adobe Illustrator 16.0.0, SVG Export Plug-In . SVG Version: 6.00 Build 0)  -->
<!DOCTYPE svg PUBLIC "-//W3C//DTD SVG 1.1//EN" "http://www.w3.org/Graphics/SVG/1.1/DTD/svg11.dtd">
<svg version="1.1" id="Capa_1" xmlns="http://www.w3.org/2000/svg" xmlns:xlink="http://www.w3.org/1999/xlink" x="0px" y="0px"
	 width="512px" height="720px" viewBox="0 0 512 720" enable-background="new 0 0 512 720" xml:space="preserve">
<path fill="#607D8B" d="M329.963,479.987c-16.485,3.659-33.607,5.574-51.168,5.574c-132.584,0-240.056-108.982-240.056-243.414
	c0-122.68,89.509-224.175,205.911-240.962l-1.108,0.906l2.083,11.482C154.134,33.18,85.743,111.542,85.743,205.216
	c0,108.478,91.692,196.409,204.803,196.409c8.459,0,16.787-0.504,24.981-1.441L329.963,479.987z"/>
<path fill="#FF7043" d="M283.831,25.593c-98.272,0-177.944,78.163-177.944,174.587c0,96.426,79.672,174.586,177.944,174.586
	c98.271,0,177.943-78.16,177.943-174.586C461.774,103.756,382.102,25.593,283.831,25.593 M282.152,331.12
	c-82.526,0-149.406-63.891-149.406-142.691c0-78.798,66.88-142.69,149.406-142.69c82.526,0,149.406,63.893,149.406,142.69
	C431.559,267.229,364.679,331.12,282.152,331.12"/>
<g>
	<path d="M264.06,254.996h-28.701V111.593h57.401c5.266,0,10.333,0.685,15.2,2.05c4.865,1.367,9.416,3.3,13.65,5.8
		c4.232,2.5,8.1,5.5,11.6,9c3.5,3.5,6.501,7.385,9.001,11.65c2.5,4.267,4.433,8.834,5.8,13.7c1.365,4.867,2.05,9.935,2.05,15.2
		c0,7.867-1.5,15.285-4.5,22.25c-3,6.967-7.1,13.05-12.3,18.25c-5.2,5.2-11.285,9.3-18.251,12.3c-6.967,3-14.385,4.5-22.25,4.5
		h-28.7V254.996z M264.06,140.294v57.401h28.7c3.933,0,7.633-0.75,11.101-2.25c3.465-1.5,6.5-3.55,9.1-6.15
		c2.601-2.6,4.65-5.65,6.15-9.15s2.25-7.216,2.25-11.15c0-3.933-0.75-7.65-2.25-11.15s-3.55-6.55-6.15-9.15
		c-2.6-2.6-5.635-4.65-9.1-6.15c-3.468-1.5-7.168-2.25-11.101-2.25H264.06z"/>
</g>
<g>
	<path d="M109.289,672.723h-28.7V529.32h57.401c5.266,0,10.333,0.685,15.2,2.05c4.866,1.367,9.416,3.301,13.65,5.801
		c4.233,2.5,8.1,5.5,11.6,9s6.5,7.384,9,11.65s4.433,8.834,5.8,13.7c1.366,4.867,2.05,9.934,2.05,15.2c0,7.867-1.5,15.284-4.5,22.25
		c-3,6.967-7.1,13.05-12.3,18.25s-11.285,9.301-18.25,12.301c-6.967,3-14.385,4.5-22.25,4.5h-28.701V672.723z M109.289,558.021
		v57.401h28.701c3.933,0,7.633-0.75,11.1-2.25c3.466-1.5,6.5-3.55,9.1-6.15c2.6-2.6,4.65-5.65,6.15-9.15s2.25-7.216,2.25-11.149
		s-0.75-7.65-2.25-11.15s-3.55-6.55-6.15-9.15c-2.6-2.6-5.634-4.65-9.1-6.15c-3.467-1.5-7.167-2.25-11.1-2.25H109.289z"/>
	<path d="M203.69,572.321c0-5.934,1.133-11.5,3.4-16.7c2.266-5.2,5.35-9.75,9.25-13.65s8.45-6.983,13.65-9.25
		c5.2-2.266,10.766-3.4,16.701-3.4h65.801v28.7h-65.801c-2,0-3.868,0.367-5.601,1.101c-1.734,0.734-3.25,1.75-4.55,3.05
		c-1.3,1.3-2.317,2.817-3.05,4.55c-0.734,1.734-1.1,3.601-1.1,5.601s0.366,3.884,1.1,5.649c0.733,1.768,1.75,3.301,3.05,4.601
		c1.3,1.3,2.816,2.317,4.55,3.05c1.733,0.734,3.6,1.101,5.601,1.101h28.7c5.933,0,11.516,1.117,16.75,3.35
		c5.232,2.234,9.8,5.3,13.7,9.2s6.966,8.468,9.2,13.7c2.232,5.234,3.35,10.817,3.35,16.75c0,5.935-1.117,11.5-3.35,16.7
		c-2.234,5.2-5.3,9.751-9.2,13.65c-3.9,3.9-8.468,6.984-13.7,9.25c-5.234,2.268-10.817,3.4-16.75,3.4H211.69v-28.7h63.701
		c2,0,3.865-0.366,5.6-1.101c1.733-0.732,3.25-1.75,4.55-3.05c1.301-1.3,2.316-2.815,3.051-4.55c0.732-1.733,1.1-3.601,1.1-5.601
		s-0.367-3.865-1.1-5.6c-0.734-1.733-1.75-3.25-3.051-4.55c-1.3-1.301-2.816-2.316-4.55-3.051c-1.734-0.732-3.6-1.1-5.6-1.1h-28.7
		c-5.935,0-11.501-1.133-16.701-3.4c-5.2-2.266-9.75-5.35-13.65-9.25s-6.984-8.466-9.25-13.7
		C204.823,583.839,203.69,578.256,203.69,572.321z"/>
	<path d="M365.894,672.723h-28.701V529.32h57.401c5.266,0,10.333,0.685,15.2,2.05c4.865,1.367,9.416,3.301,13.65,5.801
		c4.232,2.5,8.1,5.5,11.6,9s6.501,7.384,9.001,11.65s4.433,8.834,5.8,13.7c1.365,4.867,2.05,9.934,2.05,15.2
		c0,7.867-1.5,15.284-4.5,22.25c-3,6.967-7.1,13.05-12.3,18.25s-11.285,9.301-18.251,12.301c-6.967,3-14.385,4.5-22.25,4.5h-28.7
		V672.723z M365.894,558.021v57.401h28.7c3.933,0,7.633-0.75,11.101-2.25c3.465-1.5,6.5-3.55,9.1-6.15
		c2.601-2.6,4.65-5.65,6.15-9.15s2.25-7.216,2.25-11.149s-0.75-7.65-2.25-11.15s-3.55-6.55-6.15-9.15c-2.6-2.6-5.635-4.65-9.1-6.15
		c-3.468-1.5-7.168-2.25-11.101-2.25H365.894z"/>
</g>
<g>
</g>
<g>
</g>
<g>
</g>
<g>
</g>
<g>
</g>
<g>
</g>
<g>
</g>
<g>
</g>
<g>
</g>
<g>
</g>
<g>
</g>
<g>
</g>
<g>
</g>
<g>
</g>
<g>
</g>
</svg>
